<?xml version="1.0" encoding="UTF-8" standalone="no"?>
<!DOCTYPE svg PUBLIC "-//W3C//DTD SVG 1.1//EN"
 "http://www.w3.org/Graphics/SVG/1.1/DTD/svg11.dtd">
<!-- Generated by graphviz version 2.47.0 (20210316.0004)
 -->
<!-- Title: dependencies Pages: 1 -->
<svg width="504pt" height="211pt"
 viewBox="0.00 0.00 504.00 211.00" xmlns="http://www.w3.org/2000/svg" xmlns:xlink="http://www.w3.org/1999/xlink">
<g id="graph0" class="graph" transform="scale(1 1) rotate(0) translate(4 207)">
<title>dependencies</title>
<polygon fill="white" stroke="transparent" points="-4,4 -4,-207 500,-207 500,4 -4,4"/>
<text text-anchor="start" x="227.01" y="-42.4" font-family="sans-serif" font-weight="bold" font-size="14.00">Legend</text>
<polygon fill="#ffffb3" stroke="transparent" points="14,-10 14,-30 34,-30 34,-10 14,-10"/>
<text text-anchor="start" x="37.63" y="-15.4" font-family="sans-serif" font-size="14.00"> &#160;Declarations</text>
<polygon fill="#8dd3c7" stroke="transparent" points="127,-10 127,-30 147,-30 147,-10 127,-10"/>
<text text-anchor="start" x="150.73" y="-15.4" font-family="sans-serif" font-size="14.00"> &#160;Module</text>
<polygon fill="#80b1d3" stroke="transparent" points="213,-10 213,-30 233,-30 233,-10 213,-10"/>
<text text-anchor="start" x="236.78" y="-15.4" font-family="sans-serif" font-size="14.00"> &#160;Bootstrap</text>
<polygon fill="#fdb462" stroke="transparent" points="310,-10 310,-30 330,-30 330,-10 310,-10"/>
<text text-anchor="start" x="333.67" y="-15.4" font-family="sans-serif" font-size="14.00"> &#160;Providers</text>
<polygon fill="#fb8072" stroke="transparent" points="406,-10 406,-30 426,-30 426,-10 406,-10"/>
<text text-anchor="start" x="429.73" y="-15.4" font-family="sans-serif" font-size="14.00"> &#160;Exports</text>
<g id="clust1" class="cluster">
<title>cluster_AppModule</title>
<polygon fill="none" stroke="black" stroke-dasharray="1,5" points="51,-70 51,-195 445,-195 445,-70 51,-70"/>
</g>
<g id="clust3" class="cluster">
<title>cluster_AppModule_imports</title>
<polygon fill="none" stroke="black" points="335,-78 335,-130 437,-130 437,-78 335,-78"/>
</g>
<g id="clust6" class="cluster">
<title>cluster_AppModule_providers</title>
<polygon fill="none" stroke="black" points="59,-78 59,-130 327,-130 327,-78 59,-78"/>
</g>
<!-- CalcModule -->
<g id="node1" class="node">
<title>CalcModule</title>
<polygon fill="#8dd3c7" stroke="black" points="428.71,-122 425.71,-126 404.71,-126 401.71,-122 343.29,-122 343.29,-86 428.71,-86 428.71,-122"/>
<text text-anchor="middle" x="386" y="-99.8" font-family="Times,serif" font-size="14.00">CalcModule</text>
</g>
<!-- AppModule -->
<g id="node2" class="node">
<title>AppModule</title>
<polygon fill="#8dd3c7" stroke="black" points="303.66,-187 300.66,-191 279.66,-191 276.66,-187 220.34,-187 220.34,-151 303.66,-151 303.66,-187"/>
<text text-anchor="middle" x="262" y="-164.8" font-family="Times,serif" font-size="14.00">AppModule</text>
</g>
<!-- CalcModule&#45;&gt;AppModule -->
<g id="edge1" class="edge">
<title>CalcModule&#45;&gt;AppModule</title>
<path fill="none" stroke="black" d="M386,-122.11C386,-141.34 386,-169 386,-169 386,-169 313.98,-169 313.98,-169"/>
<polygon fill="black" stroke="black" points="313.98,-165.5 303.98,-169 313.98,-172.5 313.98,-165.5"/>
</g>
<!-- AppService -->
<g id="node3" class="node">
<title>AppService</title>
<ellipse fill="#fdb462" stroke="black" cx="262" cy="-104" rx="56.74" ry="18"/>
<text text-anchor="middle" x="262" y="-99.8" font-family="Times,serif" font-size="14.00">AppService</text>
</g>
<!-- AppService&#45;&gt;AppModule -->
<g id="edge2" class="edge">
<title>AppService&#45;&gt;AppModule</title>
<path fill="none" stroke="black" d="M262,-122.11C262,-122.11 262,-140.99 262,-140.99"/>
<polygon fill="black" stroke="black" points="258.5,-140.99 262,-150.99 265.5,-140.99 258.5,-140.99"/>
</g>
<!-- MathService -->
<g id="node4" class="node">
<title>MathService</title>
<ellipse fill="#fdb462" stroke="black" cx="127" cy="-104" rx="60.25" ry="18"/>
<text text-anchor="middle" x="127" y="-99.8" font-family="Times,serif" font-size="14.00">MathService</text>
</g>
<!-- MathService&#45;&gt;AppModule -->
<g id="edge3" class="edge">
<title>MathService&#45;&gt;AppModule</title>
<path fill="none" stroke="black" d="M127,-122.11C127,-141.34 127,-169 127,-169 127,-169 210.03,-169 210.03,-169"/>
<polygon fill="black" stroke="black" points="210.03,-172.5 220.03,-169 210.03,-165.5 210.03,-172.5"/>
</g>
</g>
</svg>
