<?xml version="1.0" encoding="UTF-8" standalone="no"?>
<!DOCTYPE svg PUBLIC "-//W3C//DTD SVG 1.1//EN"
 "http://www.w3.org/Graphics/SVG/1.1/DTD/svg11.dtd">
<!-- Generated by graphviz version 2.47.0 (20210316.0004)
 -->
<!-- Title: dependencies Pages: 1 -->
<svg width="504pt" height="279pt"
 viewBox="0.00 0.00 504.00 279.00" xmlns="http://www.w3.org/2000/svg" xmlns:xlink="http://www.w3.org/1999/xlink">
<g id="graph0" class="graph" transform="scale(1 1) rotate(0) translate(4 275)">
<title>dependencies</title>
<polygon fill="white" stroke="transparent" points="-4,4 -4,-275 500,-275 500,4 -4,4"/>
<text text-anchor="start" x="227.01" y="-42.4" font-family="sans-serif" font-weight="bold" font-size="14.00">Legend</text>
<polygon fill="#ffffb3" stroke="transparent" points="14,-10 14,-30 34,-30 34,-10 14,-10"/>
<text text-anchor="start" x="37.63" y="-15.4" font-family="sans-serif" font-size="14.00"> &#160;Declarations</text>
<polygon fill="#8dd3c7" stroke="transparent" points="127,-10 127,-30 147,-30 147,-10 127,-10"/>
<text text-anchor="start" x="150.73" y="-15.4" font-family="sans-serif" font-size="14.00"> &#160;Module</text>
<polygon fill="#80b1d3" stroke="transparent" points="213,-10 213,-30 233,-30 233,-10 213,-10"/>
<text text-anchor="start" x="236.78" y="-15.4" font-family="sans-serif" font-size="14.00"> &#160;Bootstrap</text>
<polygon fill="#fdb462" stroke="transparent" points="310,-10 310,-30 330,-30 330,-10 310,-10"/>
<text text-anchor="start" x="333.67" y="-15.4" font-family="sans-serif" font-size="14.00"> &#160;Providers</text>
<polygon fill="#fb8072" stroke="transparent" points="406,-10 406,-30 426,-30 426,-10 406,-10"/>
<text text-anchor="start" x="429.73" y="-15.4" font-family="sans-serif" font-size="14.00"> &#160;Exports</text>
<g id="clust1" class="cluster">
<title>cluster_AppModule</title>
<polygon fill="none" stroke="black" stroke-dasharray="1,5" points="28,-70 28,-263 312,-263 312,-70 28,-70"/>
</g>
<g id="clust3" class="cluster">
<title>cluster_AppModule_imports</title>
<polygon fill="none" stroke="black" points="193,-146 193,-198 295,-198 295,-146 193,-146"/>
</g>
<g id="clust6" class="cluster">
<title>cluster_AppModule_providers</title>
<polygon fill="none" stroke="black" points="36,-78 36,-130 304,-130 304,-78 36,-78"/>
</g>
<g id="clust7" class="cluster">
<title>cluster_CalcModule</title>
<polygon fill="none" stroke="black" stroke-dasharray="1,5" points="320,-70 320,-138 468,-138 468,-70 320,-70"/>
</g>
<g id="clust12" class="cluster">
<title>cluster_CalcModule_providers</title>
<polygon fill="none" stroke="black" points="328,-78 328,-130 460,-130 460,-78 328,-78"/>
</g>
<!-- CalcModule -->
<g id="node1" class="node">
<title>CalcModule</title>
<polygon fill="#8dd3c7" stroke="black" points="286.71,-190 283.71,-194 262.71,-194 259.71,-190 201.29,-190 201.29,-154 286.71,-154 286.71,-190"/>
<text text-anchor="middle" x="244" y="-167.8" font-family="Times,serif" font-size="14.00">CalcModule</text>
</g>
<!-- AppModule -->
<g id="node2" class="node">
<title>AppModule</title>
<polygon fill="#8dd3c7" stroke="black" points="223.66,-255 220.66,-259 199.66,-259 196.66,-255 140.34,-255 140.34,-219 223.66,-219 223.66,-255"/>
<text text-anchor="middle" x="182" y="-232.8" font-family="Times,serif" font-size="14.00">AppModule</text>
</g>
<!-- CalcModule&#45;&gt;AppModule -->
<g id="edge1" class="edge">
<title>CalcModule&#45;&gt;AppModule</title>
<path fill="none" stroke="black" d="M212.61,-190.11C212.61,-190.11 212.61,-208.99 212.61,-208.99"/>
<polygon fill="black" stroke="black" points="209.11,-208.99 212.61,-218.99 216.11,-208.99 209.11,-208.99"/>
</g>
<!-- AppService -->
<g id="node3" class="node">
<title>AppService</title>
<ellipse fill="#fdb462" stroke="black" cx="101" cy="-104" rx="56.74" ry="18"/>
<text text-anchor="middle" x="101" y="-99.8" font-family="Times,serif" font-size="14.00">AppService</text>
</g>
<!-- AppService&#45;&gt;AppModule -->
<g id="edge2" class="edge">
<title>AppService&#45;&gt;AppModule</title>
<path fill="none" stroke="black" d="M148.9,-114C148.9,-114 148.9,-208.56 148.9,-208.56"/>
<polygon fill="black" stroke="black" points="145.4,-208.56 148.9,-218.56 152.4,-208.56 145.4,-208.56"/>
</g>
<!-- MathService -->
<g id="node4" class="node">
<title>MathService</title>
<ellipse fill="#fdb462" stroke="black" cx="236" cy="-104" rx="60.25" ry="18"/>
<text text-anchor="middle" x="236" y="-99.8" font-family="Times,serif" font-size="14.00">MathService</text>
</g>
<!-- MathService&#45;&gt;CalcModule -->
<g id="edge5" class="edge">
<title>MathService&#45;&gt;CalcModule</title>
<path fill="none" stroke="black" d="M244,-121.87C244,-121.87 244,-143.54 244,-143.54"/>
<polygon fill="black" stroke="black" points="240.5,-143.54 244,-153.54 247.5,-143.54 240.5,-143.54"/>
</g>
<!-- MathService&#45;&gt;AppModule -->
<g id="edge3" class="edge">
<title>MathService&#45;&gt;AppModule</title>
<path fill="none" stroke="black" d="M188.51,-115.34C188.51,-115.34 188.51,-208.57 188.51,-208.57"/>
<polygon fill="black" stroke="black" points="185.01,-208.57 188.51,-218.57 192.01,-208.57 185.01,-208.57"/>
</g>
<!-- CalcService -->
<g id="node5" class="node">
<title>CalcService</title>
<ellipse fill="#fdb462" stroke="black" cx="394" cy="-104" rx="57.88" ry="18"/>
<text text-anchor="middle" x="394" y="-99.8" font-family="Times,serif" font-size="14.00">CalcService</text>
</g>
<!-- CalcService&#45;&gt;CalcModule -->
<g id="edge4" class="edge">
<title>CalcService&#45;&gt;CalcModule</title>
<path fill="none" stroke="black" d="M394,-122.22C394,-142.37 394,-172 394,-172 394,-172 296.98,-172 296.98,-172"/>
<polygon fill="black" stroke="black" points="296.98,-168.5 286.98,-172 296.98,-175.5 296.98,-168.5"/>
</g>
</g>
</svg>
